# Blender v2.93.5 OBJ File: 'Stone1.blend'
# www.blender.org
mtllib Stone_dark.mtl
o Sphere
v -0.478916 1.082684 0.415017
v -0.736234 0.868614 0.597687
v -0.856287 0.696612 0.784619
v -0.817294 0.508377 0.791014
v -0.679875 0.335058 0.741625
v -0.452781 0.207351 0.587230
v -0.174070 0.147957 0.349964
v -0.818767 1.117378 0.154192
v -1.320571 0.967154 0.144015
v -1.542644 0.781715 0.169487
v -1.462801 0.568407 0.170331
v -1.226189 0.357946 0.170573
v -0.820666 0.178889 0.139954
v -0.346806 0.108532 0.102645
v -0.751815 1.075778 -0.264380
v -1.070413 0.975279 -0.494025
v -1.207867 0.797063 -0.609487
v -1.198410 0.585227 -0.645734
v -0.985769 0.355193 -0.559251
v -0.610096 0.159921 -0.387307
v -0.240735 0.085201 -0.184601
v -0.305908 0.799109 -0.618205
v -0.353003 0.901583 -0.712387
v -0.299805 0.719950 -0.949081
v -0.196356 0.499900 -0.933881
v -0.098384 0.307099 -0.733378
v 0.005273 0.150191 -0.598208
v 0.075038 0.092569 -0.336850
v 0.198323 1.131665 -0.277589
v 0.297170 0.719373 -0.642928
v 0.740169 0.670044 -0.774638
v 0.822927 0.430997 -0.826355
v 0.785414 0.241941 -0.754624
v 0.614565 0.150119 -0.532203
v 0.390169 0.112468 -0.262017
v -0.127573 1.217958 0.081341
v 0.232056 1.108564 0.006558
v 0.561142 0.830513 -0.129495
v 1.026756 0.697034 -0.057062
v 1.131963 0.510811 -0.093275
v 1.045194 0.346399 -0.090970
v 0.845810 0.221068 -0.059495
v 0.525987 0.158199 -0.007163
v 0.156861 1.118825 0.262320
v 0.395346 0.955904 0.388864
v 0.753577 0.790093 0.570102
v 0.865126 0.592395 0.630459
v 0.810525 0.423682 0.578859
v 0.648891 0.323469 0.447018
v 0.417061 0.237605 0.268335
v 0.116961 0.142899 0.049931
v -0.012568 1.156334 0.510621
v 0.070716 0.976894 0.757123
v 0.123637 0.773046 0.935738
v 0.155547 0.575698 0.987997
v 0.167340 0.406936 0.914058
v 0.162924 0.278965 0.720299
v 0.145611 0.192053 0.423893
vt 0.750000 0.875000
vt 0.687500 1.000000
vt 0.625000 0.875000
vt 0.687500 0.000000
vt 0.750000 0.125000
vt 0.625000 0.125000
vt 0.750000 0.250000
vt 0.750000 0.375000
vt 0.625000 0.375000
vt 0.625000 0.250000
vt 0.750000 0.500000
vt 0.750000 0.625000
vt 0.625000 0.625000
vt 0.625000 0.500000
vt 0.750000 0.750000
vt 0.625000 0.750000
vt 0.500000 0.625000
vt 0.500000 0.500000
vt 0.500000 0.875000
vt 0.500000 0.750000
vt 0.500000 0.250000
vt 0.500000 0.125000
vt 0.500000 0.375000
vt 0.562500 1.000000
vt 0.562500 0.000000
vt 0.375000 0.250000
vt 0.375000 0.125000
vt 0.375000 0.500000
vt 0.375000 0.375000
vt 0.375000 0.750000
vt 0.375000 0.625000
vt 0.437500 1.000000
vt 0.375000 0.875000
vt 0.437500 0.000000
vt 0.250000 0.750000
vt 0.250000 0.625000
vt 0.312500 1.000000
vt 0.250000 0.875000
vt 0.312500 0.000000
vt 0.250000 0.125000
vt 0.250000 0.375000
vt 0.250000 0.250000
vt 0.250000 0.500000
vt 0.187500 0.000000
vt 0.125000 0.125000
vt 0.125000 0.375000
vt 0.125000 0.250000
vt 0.125000 0.625000
vt 0.125000 0.500000
vt 0.125000 0.875000
vt 0.125000 0.750000
vt 0.187500 1.000000
vt 0.000000 0.875000
vt 0.000000 0.750000
vt 0.000000 0.250000
vt 0.000000 0.125000
vt 0.000000 0.500000
vt 0.000000 0.375000
vt 0.000000 0.625000
vt 0.062500 1.000000
vt 0.062500 0.000000
vt 1.000000 0.125000
vt 1.000000 0.250000
vt 0.875000 0.250000
vt 0.875000 0.125000
vt 1.000000 0.375000
vt 1.000000 0.500000
vt 0.875000 0.500000
vt 0.875000 0.375000
vt 1.000000 0.625000
vt 1.000000 0.750000
vt 0.875000 0.750000
vt 0.875000 0.625000
vt 1.000000 0.875000
vt 0.937500 1.000000
vt 0.875000 0.875000
vt 0.937500 0.000000
vt 0.812500 1.000000
vt 0.812500 0.000000
vn -0.1105 0.9561 0.2712
vn 0.0847 -0.9915 0.0989
vn -0.3399 -0.8879 0.3100
vn -0.6790 -0.1881 0.7096
vn -0.2758 0.8155 0.5088
vn -0.1042 -0.9787 0.1768
vn -0.5728 -0.6260 0.5292
vn -0.3862 0.7156 0.5821
vn -0.9223 -0.1646 -0.3498
vn -0.2613 0.9591 -0.1088
vn -0.1669 -0.9859 -0.0137
vn -0.6604 -0.7173 -0.2222
vn -0.6543 0.7108 -0.2583
vn -0.1555 0.9802 -0.1223
vn 0.0861 -0.9899 0.1122
vn -0.4090 -0.9031 -0.1311
vn -0.0811 -0.9761 -0.2016
vn -0.2230 -0.6543 -0.7226
vn -0.1691 0.7093 -0.6843
vn 0.1018 0.8419 -0.5300
vn 0.0809 -0.9895 0.1200
vn -0.1843 -0.7764 -0.6027
vn -0.3148 -0.0361 -0.9485
vn 0.1878 0.9603 -0.2062
vn 0.1761 0.9232 -0.3416
vn -0.2637 0.8558 -0.4452
vn 0.0328 -0.9916 0.1255
vn -0.0186 -0.8192 -0.5733
vn 0.1421 0.1356 -0.9805
vn 0.0873 0.8305 -0.5501
vn 0.0460 -0.9855 -0.1633
vn -0.0040 -0.5809 -0.8140
vn 0.0574 -0.9875 0.1466
vn 0.4701 -0.8801 -0.0673
vn 0.8196 0.4385 -0.3688
vn 0.6790 0.6577 -0.3261
vn 0.2103 -0.9763 0.0505
vn 0.8757 -0.3723 -0.3075
vn 0.1818 0.9649 -0.1896
vn 0.2988 0.9534 0.0420
vn 0.6132 0.7881 0.0528
vn 0.1863 -0.9384 0.2910
vn 0.8426 -0.4094 0.3499
vn 0.3528 0.9347 -0.0430
vn 0.3002 0.9526 0.0500
vn 0.0780 -0.9493 0.3045
vn 0.4467 -0.8454 0.2930
vn 0.8312 0.4863 0.2694
vn 0.2370 -0.9463 0.2199
vn 0.4320 -0.3621 0.8260
vn 0.3480 0.8234 0.4482
vn 0.2956 0.9536 0.0577
vn 0.2255 -0.9680 0.1100
vn 0.2870 -0.8471 0.4473
vn 0.4301 0.3885 0.8149
vn 0.4929 0.8099 0.3181
vn -0.1909 0.9632 0.1894
vn 0.1080 -0.9867 0.1214
vn -0.0399 -0.8174 0.5748
vn -0.1825 0.1150 0.9765
vn -0.2301 0.7620 0.6053
vn 0.0544 -0.9559 0.2887
vn -0.1538 -0.3938 0.9062
vn -0.1918 0.7017 0.6862
usemtl Material.001
s off
f 1/1/1 36/2/1 8/3/1
f 51/4/2 7/5/2 14/6/2
f 6/7/3 5/8/3 12/9/3 13/10/3
f 4/11/4 3/12/4 10/13/4 11/14/4
f 2/15/5 1/1/5 8/3/5 9/16/5
f 7/5/6 6/7/6 13/10/6 14/6/6
f 5/8/7 4/11/7 11/14/7 12/9/7
f 3/12/8 2/15/8 9/16/8 10/13/8
f 11/14/9 10/13/9 17/17/9 18/18/9
f 9/16/10 8/3/10 15/19/10 16/20/10
f 14/6/11 13/10/11 20/21/11 21/22/11
f 12/9/12 11/14/12 18/18/12 19/23/12
f 10/13/13 9/16/13 16/20/13 17/17/13
f 8/3/14 36/24/14 15/19/14
f 51/25/15 14/6/15 21/22/15
f 13/10/16 12/9/16 19/23/16 20/21/16
f 21/22/17 20/21/17 27/26/17 28/27/17
f 19/23/18 18/18/18 25/28/18 26/29/18
f 17/17/19 16/20/19 23/30/19 24/31/19
f 15/19/20 36/32/20 22/33/20
f 51/34/21 21/22/21 28/27/21
f 20/21/22 19/23/22 26/29/22 27/26/22
f 18/18/23 17/17/23 24/31/23 25/28/23
f 16/20/24 15/19/24 22/33/24 23/30/24
f 24/31/25 23/30/25 30/35/25 31/36/25
f 22/33/26 36/37/26 29/38/26
f 51/39/27 28/27/27 35/40/27
f 27/26/28 26/29/28 33/41/28 34/42/28
f 25/28/29 24/31/29 31/36/29 32/43/29
f 23/30/30 22/33/30 29/38/30 30/35/30
f 28/27/31 27/26/31 34/42/31 35/40/31
f 26/29/32 25/28/32 32/43/32 33/41/32
f 51/44/33 35/40/33 43/45/33
f 34/42/34 33/41/34 41/46/34 42/47/34
f 32/43/35 31/36/35 39/48/35 40/49/35
f 30/35/36 29/38/36 37/50/36 38/51/36
f 35/40/37 34/42/37 42/47/37 43/45/37
f 33/41/38 32/43/38 40/49/38 41/46/38
f 31/36/39 30/35/39 38/51/39 39/48/39
f 29/38/40 36/52/40 37/50/40
f 38/51/41 37/50/41 44/53/41 45/54/41
f 43/45/42 42/47/42 49/55/42 50/56/42
f 41/46/43 40/49/43 47/57/43 48/58/43
f 39/48/44 38/51/44 45/54/44 46/59/44
f 37/50/45 36/60/45 44/53/45
f 51/61/46 43/45/46 50/56/46
f 42/47/47 41/46/47 48/58/47 49/55/47
f 40/49/48 39/48/48 46/59/48 47/57/48
f 50/62/49 49/63/49 57/64/49 58/65/49
f 48/66/50 47/67/50 55/68/50 56/69/50
f 46/70/51 45/71/51 53/72/51 54/73/51
f 44/74/52 36/75/52 52/76/52
f 51/77/53 50/62/53 58/65/53
f 49/63/54 48/66/54 56/69/54 57/64/54
f 47/67/55 46/70/55 54/73/55 55/68/55
f 45/71/56 44/74/56 52/76/56 53/72/56
f 52/76/57 36/78/57 1/1/57
f 51/79/58 58/65/58 7/5/58
f 57/64/59 56/69/59 5/8/59 6/7/59
f 55/68/60 54/73/60 3/12/60 4/11/60
f 53/72/61 52/76/61 1/1/61 2/15/61
f 58/65/62 57/64/62 6/7/62 7/5/62
f 56/69/63 55/68/63 4/11/63 5/8/63
f 54/73/64 53/72/64 2/15/64 3/12/64
